<svg height="512pt" viewBox="-18 0 512 512" width="512pt" xmlns="http://www.w3.org/2000/svg"><path d="m476.691406 238.347656c0 131.632813-106.710937 238.34375-238.34375 238.34375-131.636718 0-238.347656-106.710937-238.347656-238.34375 0-131.636718 106.710938-238.347656 238.347656-238.347656 131.632813 0 238.34375 106.710938 238.34375 238.347656zm0 0" fill="#ffebbe"/><path d="m476.691406 238.347656c0 131.632813-106.710937 238.34375-238.34375 238.34375v-476.691406c131.632813 0 238.34375 106.710938 238.34375 238.347656zm0 0" fill="#ffd87c"/><path d="m389.355469 264.992188c-5.835938 11.773437-7.945313 25.035156-6.800781 38.132812 2.765624 31.425781-21.667969 61.65625-56.503907 61.65625h-175.371093c-31.773438 0-55.476563-25.457031-56.65625-54.417969-.5625-13.679687-4.566407-27.105469-12.71875-38.121093-11.558594-15.636719-13.535157-38.300782-.808594-55.378907 6.207031-8.324219 9.605468-18.515625 8.992187-28.878906-1.496093-25.128906 12.082031-49.152344 34.652344-60.742187 6.195313-3.183594 10.761719-8.796876 13.105469-15.359376 14.480468-40.511718 66.324218-56.28125 101.101562-27.464843.007813.011719.007813.011719.019532.019531 36.710937-30.433594 91.617187-11.046875 102.890624 33.085938 1.617188 6.328124 5.292969 11.878906 10.476563 15.851562 16.8125 12.863281 26.019531 33.117188 25.046875 53.863281-.492188 10.457031 2.273438 20.871094 8.632812 29.183594 11.261719 14.714844 11.355469 33.648437 3.941407 48.570313zm0 0" fill="#bc5f19"/><path d="m389.355469 264.992188c-5.835938 11.773437-7.945313 25.035156-6.800781 38.132812 2.765624 31.425781-21.667969 61.65625-56.503907 61.65625h-87.703125v-280.363281c.007813.011719.007813.011719.019532.019531 36.710937-30.433594 91.617187-11.046875 102.890624 33.085938 1.617188 6.328124 5.292969 11.878906 10.476563 15.851562 16.8125 12.863281 26.019531 33.117188 25.046875 53.863281-.492188 10.457031 2.273438 20.871094 8.632812 29.183594 11.261719 14.714844 11.355469 33.648437 3.941407 48.570313zm0 0" fill="#9e5015"/><path d="m387.707031 495.410156c.183594 9.105469-7.136719 16.589844-16.242187 16.589844h-266.257813c-8.386719 0-16.457031-6.289062-16.210937-17.972656.714844-34.84375 3.195312-77.90625 33.800781-120.820313 23.429687-32.910156 40.328125-38.289062 115.550781-79.402343.152344-.082032.304688-.152344.449219-.246094 13.160156 7.230468 24.492187 13.375 34.367187 18.730468 48.421876 26.277344 61.652344 33.894532 80.769532 60.691407 3.054687 4.269531 5.816406 8.53125 8.328125 12.792969 22.332031 37.785156 24.71875 74.945312 25.445312 109.636718zm0 0" fill="#7ed8f6"/><path d="m387.707031 495.410156c.183594 9.105469-7.136719 16.589844-16.242187 16.589844h-133.117188v-218.195312c.152344-.082032.304688-.152344.449219-.246094 13.160156 7.230468 24.492187 13.375 34.367187 18.730468 48.421876 26.277344 61.652344 33.894532 80.769532 60.691407 3.054687 4.269531 5.816406 8.53125 8.328125 12.792969 22.332031 37.785156 24.71875 74.945312 25.445312 109.636718zm0 0" fill="#5ecef4"/><path d="m362.261719 385.773438c0 .007812-.011719.007812-.011719.019531-.011719.039062-.019531.058593-.03125.089843-3.746094 9.042969-7.515625 11.53125-122.191406 126.117188h-134.820313c-8.386719 0-16.457031-6.289062-16.210937-17.972656l149.351562-149.339844c28.128906-28.136719 28.25-28.949219 34.652344-32.328125.050781-.027344.101562-.050781.164062-.070313 10.65625-5.570312 23.640626-5.664062 34.609376.347657 17.5625 9.605469 32.789062 18.964843 47.054687 33.679687 10.421875 10.773438 12.859375 26.367188 7.433594 39.457032zm0 0" fill="#ffc43b"/><path d="m218.347656 462.40625-49.601562 49.59375h-45.925782l72.558594-72.550781c6.347656-6.339844 16.628906-6.339844 22.980469 0 6.328125 6.347656 6.328125 16.628906-.011719 22.957031zm0 0" fill="#ffa433"/><path d="m362.25 385.792969c-.011719.039062-.019531.058593-.03125.089843-3.746094 9.042969-7.515625 11.53125-122.191406 126.117188h-1.679688v-167.3125c28.128906-28.136719 28.25-28.949219 34.652344-32.328125.050781-.027344.101562-.050781.164062-.070313 10.65625-5.570312 23.640626-5.664062 34.609376.347657 17.5625 9.605469 32.789062 18.964843 47.054687 33.679687 10.433594 10.78125 12.859375 26.390625 7.421875 39.476563zm0 0" fill="#ffa433"/><path d="m332.71875 226.355469v83.917969h-188.691406v-83.917969c0-42.886719 28.609375-79.082031 67.785156-90.542969-.007812.371094-.007812.75-.007812 1.105469 0 17.644531 11.019531 32.707031 26.542968 38.707031 12.710938 4.921875 27.664063 3.375 39.390625-5.199219 6.175781 15.175781 21.054688 25.875 38.441407 25.875 3.851562 0 7.566406-.523437 11.109374-1.503906 3.523438 9.859375 5.429688 20.488281 5.429688 31.558594zm0 0" fill="#ffdfcf"/><path d="m332.71875 226.355469v83.917969h-94.371094v-134.648438c12.710938 4.921875 27.664063 3.375 39.390625-5.199219 6.175781 15.175781 21.054688 25.875 38.441407 25.875 3.851562 0 7.566406-.523437 11.109374-1.503906 3.523438 9.859375 5.429688 20.488281 5.429688 31.558594zm0 0" fill="#ffcebf"/><path d="m278.398438 216.644531c-8.96875 0-16.238282 7.269531-16.238282 16.238281v9.898438c0 8.96875 7.269532 16.238281 16.238282 16.238281 8.964843 0 16.234374-7.269531 16.234374-16.238281v-9.898438c0-8.96875-7.269531-16.238281-16.234374-16.238281zm0 0" fill="#71390f"/><path d="m199.96875 216.644531c-8.96875 0-16.238281 7.269531-16.238281 16.238281v9.898438c0 8.96875 7.269531 16.238281 16.238281 16.238281 8.964844 0 16.234375-7.269531 16.234375-16.238281v-9.898438c0-8.96875-7.269531-16.238281-16.234375-16.238281zm0 0" fill="#804111"/><path d="m336.691406 253.113281v44.175781c0 32.683594-35.726562 61.582032-63.191406 79.019532-10.730469 6.8125-22.9375 10.210937-35.152344 10.210937-12.21875.007813-24.433594-3.398437-35.164062-10.210937-27.660156-17.558594-63.203125-46.394532-63.203125-79.019532v-44.175781l38.226562 36.023438c11.847657 11.160156 29.195313 14.214843 44.144531 7.761719l.164063-.070313c5.058594-2.191406 10.433594-3.308594 15.832031-3.351563 5.621094-.039062 11.242188 1.078126 16.515625 3.351563 15.023438 6.492187 32.480469 3.367187 44.320313-7.9375zm0 0" fill="#bc5f19"/><path d="m336.691406 253.113281v44.175781c0 32.683594-35.726562 61.582032-63.191406 79.019532-10.730469 6.8125-22.9375 10.210937-35.152344 10.210937v-93.042969c5.621094-.039062 11.242188 1.078126 16.515625 3.351563 15.023438 6.492187 32.480469 3.367187 44.320313-7.9375zm0 0" fill="#9e5015"/></svg>